Coordinates
version=1
nRows=10
nColumns=63
inDegrees=yes

Units are S.I. units (second, meters, Newtons, ...)
If the header above contains a line with 'inDegrees', this indicates whether rotational values are in degrees (yes) or radians (no).

endheader
time	pelvis_tilt	pelvis_list	pelvis_rotation	pelvis_tx	pelvis_ty	pelvis_tz	hip_flexion_r	hip_adduction_r	hip_rotation_r	knee_angle_r	knee_angle_r_beta	ankle_angle_r	subtalar_angle_r	mtp_angle_r	hip_flexion_l	hip_adduction_l	hip_rotation_l	knee_angle_l	knee_angle_l_beta	ankle_angle_l	subtalar_angle_l	mtp_angle_l	L5_S1_Flex_Ext	L5_S1_Lat_Bending	L5_S1_axial_rotation	L4_L5_Flex_Ext	L4_L5_Lat_Bending	L4_L5_axial_rotation	L3_L4_Flex_Ext	L3_L4_Lat_Bending	L3_L4_axial_rotation	L2_L3_Flex_Ext	L2_L3_Lat_Bending	L2_L3_axial_rotation	L1_L2_Flex_Ext	L1_L2_Lat_Bending	L1_L2_axial_rotation	L1_T12_Flex_Ext	L1_T12_Lat_Bending	L1_T12_axial_rotation	Abs_r3	Abs_r2	Abs_r1	Abs_t1	Abs_t2	neck_flexion	neck_bending	neck_rotation	arm_flex_r	arm_add_r	arm_rot_r	elbow_flex_r	pro_sup_r	wrist_flex_r	wrist_dev_r	arm_flex_l	arm_add_l	arm_rot_l	elbow_flex_l	pro_sup_l	wrist_flex_l	wrist_dev_l
      2.52727273	      3.74545765	     -1.77362770	     97.79876198	      0.12462284	      1.03509041	      0.14651024	      7.73529473	     -0.50849518	    -18.60152775	     14.16370062	      0.24720321	     21.97297668	      8.43232225	      0.00000000	     10.46618615	     -1.59211104	      4.03754370	     19.06096340	      0.33267657	     13.57466455	     -9.97765664	      0.00000000	      0.13203302	     -0.93369470	     -0.74015250	      0.24519852	     -1.24181395	     -0.78641203	      0.21691704	     -2.27018529	     -0.78641203	      0.15090054	     -2.27018529	     -0.64763344	      0.12260586	     -1.90399023	     -0.60137391	      0.07544367	     -1.44629309	     -0.55511438	      0.94309864	    -10.56214119	     -4.11650618	      0.00000000	      0.00000000	      7.43202103	      5.73455185	     -9.41695695	     45.94099931	    -35.83941216	      7.84431668	    132.45882249	     86.89921885	      5.65612133	     16.78115315	      8.39744541	    -18.55188047	      5.74801752	     88.48217747	     87.60139872	    -10.88119878	     13.18655914
      2.54545455	      4.19082642	     -2.33676591	     98.27395421	      0.12415579	      1.03372284	      0.14988275	      8.30411664	     -0.14987185	    -19.05878320	     13.48087805	      0.23528571	     21.89468492	      8.91781771	      0.00000000	     11.22821443	     -1.94836943	      4.12318102	     18.68032958	      0.32603326	     14.20341028	     -8.84097229	      0.00000000	      0.08022217	     -0.87252978	     -0.77067814	      0.14898060	     -1.16046460	     -0.81884552	      0.13179701	     -2.12146890	     -0.81884552	      0.09168592	     -2.12146890	     -0.67434337	      0.07449431	     -1.77926272	     -0.62617599	      0.04583895	     -1.35154862	     -0.57800860	      0.57301897	     -9.87023134	     -4.28628059	      0.00000000	      0.00000000	      6.75164938	      3.73578787	     -5.13274785	     49.74544016	    -36.12116994	     22.42628607	    123.05365813	     88.19782651	      6.61992184	     18.41086699	     10.53460535	    -17.65481361	      6.64892621	     87.92072239	     87.31388791	    -10.41765441	     14.25256400
      2.56363636	      4.68036983	     -2.86389855	     98.56550616	      0.12418842	      1.03265063	      0.15288149	      8.92223937	      0.32554200	    -19.07814197	     12.83147428	      0.22395147	     21.82114483	      9.18783692	      0.00000000	     11.93038600	     -2.63433860	      2.57974990	     18.23109807	      0.31819269	     15.72842181	     -4.95583384	      0.00000000	      0.03776543	     -0.82615271	     -0.76497906	      0.07013418	     -1.09878310	     -0.81279025	      0.06204483	     -2.00870769	     -0.81279025	      0.04316211	     -2.00870769	     -0.66935668	      0.03506898	     -1.68469060	     -0.62154549	      0.02157917	     -1.27971054	     -0.57373430	      0.26975470	     -9.34560466	     -4.25458404	      0.00000000	      0.00000000	      5.69214738	      2.31615160	     -1.85588406	     54.41399220	    -35.89686170	     37.03169051	    113.18785150	     88.53091312	      3.32423638	     19.81427174	     12.64906380	    -16.77146523	      7.66037529	     87.26266468	     86.74169044	    -10.49342609	     14.90988853
      2.58181818	      5.10474971	     -3.27298355	     98.63463414	      0.12450438	      1.03187513	      0.15537656	      9.49045371	      0.77257886	    -18.79388709	     12.31860363	      0.21500019	     21.97595692	      9.57663265	      0.00000000	     12.31793489	     -3.20442214	      1.45140644	     17.47422654	      0.30498279	     16.85280312	     -1.97687538	      0.00000000	     -0.00632230	     -0.79854879	     -0.70471737	     -0.01174115	     -1.06206989	     -0.74876220	     -0.01038691	     -1.94159153	     -0.74876220	     -0.00722576	     -1.94159153	     -0.61662770	     -0.00587089	     -1.62840070	     -0.57258286	     -0.00361256	     -1.23695208	     -0.52853803	     -0.04515959	     -9.03334365	     -3.91942658	      0.00000000	      0.00000000	      4.56233202	      1.34382105	      0.38488740	     58.65183638	    -34.30460236	     49.19167609	    103.54474419	     88.44338126	      1.56756735	     21.35622840	     14.70498694	    -16.00599632	      8.91453562	     86.43300091	     85.72683668	    -11.03200552	     14.78086841
      2.60000000	      5.64766136	     -3.88566251	     99.05513834	      0.12472858	      1.03062890	      0.15731049	     10.25711709	      1.26445473	    -19.13039578	     11.83312347	      0.20652697	     22.43388251	     10.35879626	      0.00000000	     13.13537172	     -4.15337956	     -1.63792910	     17.08768325	      0.29823633	     18.46829334	      4.37621116	      0.00000000	      0.00951928	     -0.77681477	     -0.68367284	      0.01767825	     -1.03316365	     -0.72640239	      0.01563923	     -1.88874744	     -0.72640239	      0.01087959	     -1.88874744	     -0.59821373	      0.00883960	     -1.58408068	     -0.55548418	      0.00543932	     -1.20328608	     -0.51275463	      0.06799526	     -8.78748406	     -3.80238323	      0.00000000	      0.00000000	      3.33816061	      1.33591410	      1.66348916	     61.53850161	    -32.38728875	     59.17447772	     95.12085403	     87.99868146	     -2.80955082	     19.83541118	     16.45448215	    -15.31335448	     10.09272795	     85.53778341	     84.37891622	    -10.87001941	     14.17140419
      2.61818182	      6.05877203	     -4.30702849	     98.93457169	      0.12531159	      1.02949076	      0.15865918	     10.97459681	      1.63688919	    -19.26300706	     11.73205976	      0.20476307	     23.14935279	     11.53886480	      0.00000000	     13.50708369	     -4.89177963	     -4.14198833	     16.50495848	      0.28806587	     19.55552735	      8.80570517	      0.00000000	      0.02034065	     -0.75516938	     -0.54852207	      0.03777462	     -1.00437528	     -0.58280470	      0.03341765	     -1.83611884	     -0.58280470	      0.02324733	     -1.83611884	     -0.47995681	      0.01888833	     -1.53994140	     -0.44567418	      0.01162265	     -1.16975737	     -0.41139155	      0.14529122	     -8.54262708	     -3.05071517	      0.00000000	      0.00000000	      2.30097945	      1.46238137	      2.58172155	     62.81329898	    -30.72822935	     64.87094398	     88.99578769	     87.46373565	     -2.62975634	     18.56179955	     18.04131004	    -14.68180581	     11.40517837	     84.55024384	     82.78566212	    -10.95963584	     13.28595472
      2.63636364	      6.38927765	     -4.65553032	     98.55538376	      0.12581068	      1.02828373	      0.15985475	     11.69579479	      1.95394206	    -19.01994630	     11.84737080	      0.20677563	     23.78716153	     12.29446646	      0.00000000	     13.76627726	     -5.32564630	     -5.13139258	     15.98514547	      0.27899342	     20.01886785	     10.38226686	      0.00000000	      0.04128173	     -0.72499520	     -0.38236686	      0.07666430	     -0.96424362	     -0.40626479	      0.06782176	     -1.76275334	     -0.40626479	      0.04718089	     -1.76275334	     -0.33457100	      0.03833422	     -1.47841022	     -0.31067307	      0.02358838	     -1.12301757	     -0.28677515	      0.29487128	     -8.20129073	     -2.12660977	      0.00000000	      0.00000000	      1.54009050	      1.69023128	      3.55436892	     63.35921957	    -30.24807410	     67.95479864	     86.02766129	     87.23300591	     -1.19060601	     17.20848882	     19.28736816	    -13.97061895	     12.31968717	     83.66118095	     81.90821284	    -10.97755579	     12.79449641
      2.65454545	      6.55171911	     -4.92312883	     98.52586911	      0.12584610	      1.02723741	      0.16061506	     12.15860878	      2.10125322	    -18.74721667	     11.84592951	      0.20675047	     24.29915315	     12.55414418	      0.00000000	     14.00934089	     -5.43506314	     -5.17730713	     15.67279564	      0.27354189	     20.11534071	     10.78608413	      0.00000000	      0.06608716	     -0.71015681	     -0.33633176	      0.12273047	     -0.94450855	     -0.35735250	      0.10857460	     -1.72667526	     -0.35735250	      0.07553102	     -1.72667526	     -0.29429029	      0.06136854	     -1.44815176	     -0.27326956	      0.03776221	     -1.10003289	     -0.25224882	      0.47205401	     -8.03343583	     -1.87057637	      0.00000000	      0.00000000	      1.21025117	      1.78723390	      4.14128739	     63.21086829	    -30.56807445	     68.62375978	     85.93503762	     87.30860294	     -0.87052723	     17.04523802	     19.98973696	    -13.47402508	     12.63322293	     83.18266138	     81.81295448	    -10.98637983	     13.05122693
      2.67272727	      6.78602878	     -5.00430998	     97.56119403	      0.12654061	      1.02646472	      0.16174968	     12.63176370	      2.37620425	    -18.60970055	     12.28161893	      0.21435469	     24.47531139	     13.49031267	      0.00000000	     13.96186327	     -5.97564587	     -7.30599961	     15.65582500	      0.27324569	     20.48423204	     12.36034226	      0.00000000	      0.05758462	     -0.64696646	     -0.13892253	      0.10694039	     -0.86046539	     -0.14760519	      0.09460576	     -1.57303425	     -0.14760519	      0.06581346	     -1.57303425	     -0.12155722	      0.05347307	     -1.31929400	     -0.11287456	      0.03290385	     -1.00215105	     -0.10419190	      0.41132115	     -7.31861399	     -0.77264546	      0.00000000	      0.00000000	      1.08146074	      1.22353973	      5.65064439	     63.71636550	    -31.78175148	     67.96053373	     87.65230833	     87.27515722	     -0.85848076	     17.32914188	     20.49698016	    -13.01771820	     12.82309978	     83.02720023	     82.09735747	    -11.32668741	     13.60289648
      2.69090909	      6.89671709	     -4.89612746	     97.19285983	      0.12643569	      1.02614763	      0.16276905	     12.71194224	      2.50662948	    -18.57823228	     12.57704083	      0.21951077	     24.56438551	     13.57861448	      0.00000000	     13.75837193	     -6.11882034	     -7.71564082	     15.57641006	      0.27185964	     20.60625792	     12.40272727	      0.00000000	      0.01242555	     -0.59300355	     -0.13394875	      0.02307548	     -0.78869472	     -0.14232055	      0.02041393	     -1.44182883	     -0.14232055	      0.01420116	     -1.44182883	     -0.11720516	      0.01153836	     -1.20925284	     -0.10883336	      0.00709996	     -0.91856250	     -0.10046156	      0.08875444	     -6.70817474	     -0.74498277	      0.00000000	      0.00000000	      1.39145621	      0.13202013	      6.88045615	     63.86927259	    -32.48326902	     64.86556706	     89.44270905	     86.90596619	     -2.19674787	     17.66985006	     20.47265797	    -12.81131149	     12.37426408	     83.32265276	     82.55652284	    -11.51914535	     13.65375397
